# xmcd
#
# Track frame offsets: 
#        150
#        21769
#        39501
#        61255
#        98003
#        113506
#        134657
#        150077
#        168050
#        201990
#
# Disc length: 2924 seconds
#
# Revision: 0
# Processed by: cddbd v1.5.2PL0 Copyright (c) Steve Scherf et al.
# Submitted via: ExactAudioCopy v1.3
#
DISCID=720b6a0a
DTITLE=Nick Harless Band - Tear It All Apart
DYEAR=2019
DGENRE=Blues Rock
TTITLE0=Graveyard Shift
TTITLE1=Tear It All Apart
TTITLE2=Find Your Love
TTITLE3=The City
TTITLE4=Cadillac Key
TTITLE5=Questions
TTITLE6=Different Kind Of Cool
TTITLE7=Love You Good
TTITLE8=Alone
TTITLE9=More Than A Ring
EXTD=
EXTT0=
EXTT1=
EXTT2=
EXTT3=
EXTT4=
EXTT5=
EXTT6=
EXTT7=
EXTT8=
EXTT9=
PLAYORDER=
